<?xml version="1.0" encoding="utf-8"?>
<!-- Generator: Adobe Illustrator 24.1.1, SVG Export Plug-In . SVG Version: 6.00 Build 0)  -->
<svg version="1.1" id="Layer_1" xmlns="http://www.w3.org/2000/svg" xmlns:xlink="http://www.w3.org/1999/xlink" x="0px" y="0px"
	 viewBox="0 0 300 300" style="enable-background:new 0 0 300 300;" xml:space="preserve">
<style type="text/css">
	.st0{fill:#010101;}
	.st1{fill:#010101;stroke:#010101;stroke-width:0.75;stroke-linecap:round;stroke-linejoin:round;stroke-miterlimit:11.3386;}
	.st2{fill:#D45F5F;stroke:#010101;stroke-width:0.75;stroke-linecap:round;stroke-linejoin:round;stroke-miterlimit:11.3386;}
	.st3{fill:#D37B7B;stroke:#010101;stroke-width:0.75;stroke-linecap:round;stroke-linejoin:round;stroke-miterlimit:11.3386;}
	.st4{fill:#BB4A49;stroke:#010101;stroke-width:0.75;stroke-linecap:round;stroke-linejoin:round;stroke-miterlimit:11.3386;}
	.st5{fill:#CE4948;stroke:#010101;stroke-width:0.75;stroke-linecap:round;stroke-linejoin:round;stroke-miterlimit:11.3386;}
	.st6{fill:#FFFFFF;}
</style>
<g>
	<g>
		<path class="st0" d="M100.18,66.83c2.75,4.38,8.22,7.3,13.43,6.3c2.63-0.5,4.81-2.63,4.3-5.45c-0.5-2.76-3.14-4.48-5.82-4.51
			c-1.57-0.02-3.54,0.41-4.89,1.25c-1.5,0.93-1.85,3.23,0.07,3.89c0.77,0.26,1.64-0.3,1.85-1.05c0.23-0.82-0.28-1.58-1.05-1.85
			c-0.04-0.02-0.09-0.03-0.13-0.05c0.22,0.13,0.44,0.26,0.66,0.39c-0.03-0.03-0.06-0.05-0.08-0.08c0.13,0.22,0.26,0.44,0.39,0.66
			c0.12,0.34,0.08,0.56-0.14,0.67c0.12-0.15,0.15-0.17,0.1-0.08c0.28-0.05,0.58-0.23,0.85-0.32c0.52-0.18,1.07-0.33,1.62-0.4
			c0.97-0.12,2.04-0.01,2.8,0.65c0.54,0.47,0.96,1.26,0.86,1.86c-0.12,0.77-0.88,1.17-1.58,1.38c-1.88,0.55-4.11,0.11-5.87-0.67
			c-1.96-0.87-3.64-2.29-4.77-4.11C101.75,63.69,99.15,65.19,100.18,66.83L100.18,66.83z"/>
	</g>
</g>
<ellipse class="st1" cx="150.41" cy="150.26" rx="110.59" ry="119.74"/>
<g id="layer1" transform="translate(-0.60937767,-4.9760813)">
	<path id="path1976" class="st2" d="M248.96,138.52l-45.28-4.21l1.49,43.48l38.48,3.71L248.96,138.52z"/>
	<path id="path1974" class="st3" d="M175.42,182.94l0.73,25.99c15.82,0.41,26.2-5.6,35.53-7.18c14.48-2.46,23.39-2.34,29.9-6.22
		c-1.84-9.52,3.38-4.23-0.18-18.87L175.42,182.94z"/>
	<path id="path1970" class="st3" d="M106.49,190.74l-1.13,27.38c41.22-8.05,50.7,0.02,72.5-9.04c-2.15-11.11,4.67-10.05,0.52-27.13
		L106.49,190.74z"/>
	<path id="path1960" class="st4" d="M250.51,195.36l-10.94,2.02l-0.1-50.27c1.3-11.85,11.02-10.03,13.77-5.01
		c2.74,5.01,0.76,11.93-3.22,17.6L250.51,195.36z"/>
	<path id="path1968" class="st2" d="M176.5,169.98l63.9-7.31c1.78,4.47,2.46,10.73,0.92,14.68c-22.19,6.92-42.88,7.45-65.07,7.36
		L176.5,169.98z"/>
	<path id="path1966" class="st2" d="M105,176.37l73.01-7.71c2.01,4.86,1.74,11.42,0,15.71c-25,7.52-48.29,8.1-73.29,8L105,176.37z"
		/>
	<path id="path1982" class="st2" d="M58.3,112.51c-6.86-1.75-9.99,0.08-10.47,5.31c1,15.38,7.85,30.85,8.21,45.98l16.41,6.28
		C69.05,150.69,66.78,131.13,58.3,112.51z"/>
	<path id="path1978" class="st4" d="M210.26,157.23c0.88-14.95,1.58-29.89-5.66-44.84c-27.35-6.1-41.31-0.38-61.97-0.57
		c5.81,17.27,7.28,33.66,7.8,49.41L210.26,157.23z"/>
	<path id="path1980" class="st4" d="M150.61,162.74c1.22-16.76,2.19-33.53-7.84-50.29c-37.9-6.84-57.25-0.43-85.88-0.64
		c8.05,19.38,11.81,37.75,12.55,55.42L150.61,162.74z"/>
	<path id="path1964" class="st5" d="M176.97,169.88c21.39-0.39,43.31-0.91,63.47-7.18c-6.69-6.06-24.01-7.18-33.18-9.29
		c-22.85-1-35.85,2.42-56.92,5.22L176.97,169.88z"/>
	<path id="path1962" class="st5" d="M103.86,178.08c25.69-0.45,51.34-1.12,75.55-8.28c-8.04-6.92-18.63-8.79-29.65-11.21
		c-27.45-1.14-52.58,3.44-77.89,6.64L103.86,178.08z"/>
	<path id="path1958" class="st2" d="M99.55,146.27l-44.95-6.2c-3.51,0.88-6.77,3.2-8.52,6.43c-4.06,7.49-1.18,15.28,5,20.65
		c2.85,16.41,1.82,18.35,4.05,35.82l38.2,17.56l3.14-3.5L99.55,146.27z"/>
	<path id="path1956" class="st4" d="M93.06,220.62l16.98-2.22l-1.08-61.46c-1.93-14.54-17.55-12.5-22.26-3.8
		c-4.06,7.49-1.18,15.28,5,20.65L93.06,220.62z"/>
</g>
<g>
	<g>
		<path class="st0" d="M113.2,66.54c1.93,0,1.93-3,0-3C111.27,63.54,111.26,66.54,113.2,66.54L113.2,66.54z"/>
	</g>
</g>
<g>
	<g>
		<path class="st6" d="M111.25,69.67c1.93,0,1.93-3,0-3C109.32,66.67,109.32,69.67,111.25,69.67L111.25,69.67z"/>
	</g>
</g>
<g>
	<g>
		<path class="st6" d="M129.5,54.41c1.93,0,1.93-3,0-3C127.57,51.41,127.57,54.41,129.5,54.41L129.5,54.41z"/>
	</g>
</g>
<g>
	<g>
		<path class="st6" d="M129.12,77.89c1.93,0,1.93-3,0-3C127.19,74.89,127.18,77.89,129.12,77.89L129.12,77.89z"/>
	</g>
</g>
<g>
	<g>
		<path class="st6" d="M136.88,40.32c1.93,0,1.93-3,0-3C134.95,37.32,134.95,40.32,136.88,40.32L136.88,40.32z"/>
	</g>
</g>
<g>
	<g>
		<path class="st6" d="M94.17,88.45c1.93,0,1.93-3,0-3C92.24,85.45,92.24,88.45,94.17,88.45L94.17,88.45z"/>
	</g>
</g>
<g>
	<g>
		<path class="st6" d="M85.63,77.89c1.93,0,1.93-3,0-3C83.7,74.89,83.69,77.89,85.63,77.89L85.63,77.89z"/>
	</g>
</g>
<g>
	<g>
		<path class="st6" d="M108.54,57.54c1.93,0,1.93-3,0-3C106.61,54.54,106.6,57.54,108.54,57.54L108.54,57.54z"/>
	</g>
</g>
<g>
	<g>
		<path class="st6" d="M162.12,59.49c1.93,0,1.93-3,0-3C160.19,56.49,160.19,59.49,162.12,59.49L162.12,59.49z"/>
	</g>
</g>
<g>
	<g>
		<path class="st6" d="M185.42,89.24c1.93,0,1.93-3,0-3C183.49,86.24,183.48,89.24,185.42,89.24L185.42,89.24z"/>
	</g>
</g>
<g>
	<g>
		<path class="st6" d="M173.38,69.67c1.93,0,1.93-3,0-3C171.45,66.67,171.45,69.67,173.38,69.67L173.38,69.67z"/>
	</g>
</g>
<g>
	<g>
		<path class="st6" d="M134.55,95.11c1.93,0,1.93-3,0-3C132.62,92.11,132.62,95.11,134.55,95.11L134.55,95.11z"/>
	</g>
</g>
<g>
	<g>
		<path class="st6" d="M143.48,63.41c1.93,0,1.93-3,0-3C141.55,60.41,141.55,63.41,143.48,63.41L143.48,63.41z"/>
	</g>
</g>
<g>
	<g>
		<path class="st6" d="M167.17,49.32c1.93,0,1.93-3,0-3C165.24,46.32,165.23,49.32,167.17,49.32L167.17,49.32z"/>
	</g>
</g>
<g>
	<g>
		<path class="st6" d="M206.39,92.37c1.93,0,1.93-3,0-3C204.46,89.37,204.45,92.37,206.39,92.37L206.39,92.37z"/>
	</g>
</g>
<g>
	<g>
		<path class="st6" d="M203.28,73.19c1.93,0,1.93-3,0-3C201.35,70.19,201.35,73.19,203.28,73.19L203.28,73.19z"/>
	</g>
</g>
<g>
	<g>
		<path class="st6" d="M225.41,111.15c1.93,0,1.93-3,0-3C223.48,108.15,223.48,111.15,225.41,111.15L225.41,111.15z"/>
	</g>
</g>
<g>
	<g>
		<path class="st6" d="M234.73,100.19c1.93,0,1.93-3,0-3C232.8,97.19,232.8,100.19,234.73,100.19L234.73,100.19z"/>
	</g>
</g>
<g>
	<g>
		<path class="st6" d="M70.87,97.84c1.93,0,1.93-3,0-3C68.94,94.84,68.94,97.84,70.87,97.84L70.87,97.84z"/>
	</g>
</g>
<g>
	<g>
		<path class="st6" d="M73.2,218.38c1.93,0,1.93-3,0-3C71.27,215.38,71.27,218.38,73.2,218.38L73.2,218.38z"/>
	</g>
</g>
<g>
	<g>
		<path class="st6" d="M82.52,233.64c1.93,0,1.93-3,0-3C80.59,230.64,80.59,233.64,82.52,233.64L82.52,233.64z"/>
	</g>
</g>
<g>
	<g>
		<path class="st6" d="M102.32,244.6c1.93,0,1.93-3,0-3C100.39,241.6,100.39,244.6,102.32,244.6L102.32,244.6z"/>
	</g>
</g>
<g>
	<g>
		<path class="st6" d="M107.76,219.16c1.93,0,1.93-3,0-3C105.83,216.16,105.83,219.16,107.76,219.16L107.76,219.16z"/>
	</g>
</g>
<g>
	<g>
		<path class="st6" d="M111.25,234.82c1.93,0,1.93-3,0-3C109.32,231.82,109.32,234.82,111.25,234.82L111.25,234.82z"/>
	</g>
</g>
<g>
	<g>
		<path class="st6" d="M121.74,255.95c1.93,0,1.93-3,0-3C119.81,252.95,119.81,255.95,121.74,255.95L121.74,255.95z"/>
	</g>
</g>
<g>
	<g>
		<path class="st6" d="M150.08,259.86c1.93,0,1.93-3,0-3C148.15,256.86,148.15,259.86,150.08,259.86L150.08,259.86z"/>
	</g>
</g>
<g>
	<g>
		<path class="st6" d="M149.31,242.64c1.93,0,1.93-3,0-3C147.38,239.64,147.37,242.64,149.31,242.64L149.31,242.64z"/>
	</g>
</g>
<g>
	<g>
		<path class="st6" d="M138.05,228.55c1.93,0,1.93-3,0-3C136.12,225.55,136.11,228.55,138.05,228.55L138.05,228.55z"/>
	</g>
</g>
<g>
	<g>
		<path class="st6" d="M125.23,221.12c1.93,0,1.93-3,0-3C123.3,218.12,123.3,221.12,125.23,221.12L125.23,221.12z"/>
	</g>
</g>
<g>
	<g>
		<path class="st6" d="M159.79,220.73c1.93,0,1.93-3,0-3C157.86,217.73,157.86,220.73,159.79,220.73L159.79,220.73z"/>
	</g>
</g>
<g>
	<g>
		<path class="st6" d="M163.29,239.12c1.93,0,1.93-3,0-3C161.36,236.12,161.35,239.12,163.29,239.12L163.29,239.12z"/>
	</g>
</g>
<g>
	<g>
		<path class="st6" d="M174.16,251.25c1.93,0,1.93-3,0-3C172.23,248.25,172.22,251.25,174.16,251.25L174.16,251.25z"/>
	</g>
</g>
<g>
	<g>
		<path class="st6" d="M188.91,237.16c1.93,0,1.93-3,0-3C186.98,234.16,186.98,237.16,188.91,237.16L188.91,237.16z"/>
	</g>
</g>
<g>
	<g>
		<path class="st6" d="M187.75,217.2c1.93,0,1.93-3,0-3C185.82,214.2,185.81,217.2,187.75,217.2L187.75,217.2z"/>
	</g>
</g>
<g>
	<g>
		<path class="st6" d="M211.04,225.03c1.93,0,1.93-3,0-3C209.11,222.03,209.11,225.03,211.04,225.03L211.04,225.03z"/>
	</g>
</g>
<g>
	<g>
		<path class="st6" d="M206,212.9c1.93,0,1.93-3,0-3C204.07,209.9,204.06,212.9,206,212.9L206,212.9z"/>
	</g>
</g>
<g>
	<g>
		<path class="st6" d="M228.13,207.81c1.93,0,1.93-3,0-3C226.2,204.81,226.2,207.81,228.13,207.81L228.13,207.81z"/>
	</g>
</g>
<g>
	<g>
		<path class="st6" d="M206.77,238.08c-0.13,0-0.26,0-0.39,0c-0.21-0.01-0.4,0.04-0.58,0.13c-0.19,0.06-0.35,0.16-0.48,0.31
			c-0.15,0.14-0.25,0.3-0.31,0.48c-0.09,0.18-0.14,0.37-0.13,0.58c0.02,0.13,0.04,0.27,0.05,0.4c0.07,0.25,0.2,0.47,0.39,0.66
			c0.1,0.08,0.2,0.16,0.3,0.23c0.23,0.14,0.49,0.2,0.76,0.2c0.13,0,0.26,0,0.39,0c0.21,0.01,0.4-0.04,0.58-0.13
			c0.19-0.06,0.35-0.16,0.48-0.31c0.15-0.14,0.25-0.3,0.31-0.48c0.09-0.18,0.14-0.37,0.13-0.58c-0.02-0.13-0.04-0.27-0.05-0.4
			c-0.07-0.25-0.2-0.47-0.39-0.66c-0.1-0.08-0.2-0.16-0.3-0.23C207.3,238.15,207.04,238.08,206.77,238.08L206.77,238.08z"/>
	</g>
</g>
<g>
	<g>
		<path class="st6" d="M115.91,89.63c1.93,0,1.93-3,0-3C113.98,86.63,113.98,89.63,115.91,89.63L115.91,89.63z"/>
	</g>
</g>
<g>
	<g>
		<path class="st6" d="M184.64,53.23c1.93,0,1.93-3,0-3C182.71,50.23,182.71,53.23,184.64,53.23L184.64,53.23z"/>
	</g>
</g>
<g>
	<g>
		<path class="st6" d="M218.42,79.45c1.93,0,1.93-3,0-3C216.49,76.45,216.49,79.45,218.42,79.45L218.42,79.45z"/>
	</g>
</g>
<g>
	<g>
		<path class="st6" d="M196.68,57.54c1.93,0,1.93-3,0-3C194.75,54.54,194.74,57.54,196.68,57.54L196.68,57.54z"/>
	</g>
</g>
<g>
	<g>
		<path class="st6" d="M150.3,85.18c1.93,0,1.93-3,0-3C148.37,82.18,148.37,85.18,150.3,85.18L150.3,85.18z"/>
	</g>
</g>
</svg>
